<?xml version="1.0" encoding="UTF-8" standalone="no"?>
<svg width="100px" height="100px" viewBox="0 0 100 100" version="1.1" xmlns="http://www.w3.org/2000/svg" xmlns:xlink="http://www.w3.org/1999/xlink">
    <!-- Generator: Sketch 3.7.2 (28276) - http://www.bohemiancoding.com/sketch -->
    <title>01_business_workplace</title>
    <desc>Created with Sketch.</desc>
    <defs></defs>
    <g id="Page-1" stroke="none" stroke-width="1" fill="none" fill-rule="evenodd">
        <g id="01_business_workplace">
            <g id="Group">
                <g id="_x30_1_x5F_business_x5F_workplace" fill="#363F40">
                    <g id="Group">
                        <g>
                            <path d="M76.5625,53.125 L59.375,53.125 L59.375,50 L75,50 L75,3.125 L3.125,3.125 L3.125,37.5 L0,37.5 L0,1.5625 C0,0.6984375 0.7,0 1.5625,0 L76.5625,0 C77.4265625,0 78.125,0.6984375 78.125,1.5625 L78.125,51.5625 C78.125,52.4265625 77.4265625,53.125 76.5625,53.125 L76.5625,53.125 Z" id="Shape"></path>
                            <g transform="translate(0.000000, 40.625000)">
                                <rect id="Rectangle-path" x="1.5625" y="18.75" width="10.9375" height="3.125"></rect>
                                <rect id="Rectangle-path" x="21.875" y="18.75" width="17.1875" height="3.125"></rect>
                                <rect id="Rectangle-path" x="1.5625" y="28.125" width="10.9375" height="3.125"></rect>
                                <rect id="Rectangle-path" x="21.875" y="28.125" width="17.1875" height="3.125"></rect>
                                <rect id="Rectangle-path" x="1.5625" y="9.375" width="10.9375" height="3.125"></rect>
                                <rect id="Rectangle-path" x="21.875" y="9.375" width="17.1875" height="3.125"></rect>
                                <polygon id="Shape" points="40.625 34.375 37.5 34.375 37.5 3.125 3.125 3.125 3.125 34.375 0 34.375 0 0 40.625 0"></polygon>
                                <path d="M21.875,34.375 C21.46875,34.375 21.06875,34.215625 20.7703125,33.9171875 L17.1875,30.334375 L13.6046875,33.9171875 C13.15625,34.3640625 12.484375,34.496875 11.9015625,34.25625 C11.31875,34.015625 10.9375,33.44375 10.9375,32.8125 L10.9375,1.5625 L14.0625,1.5625 L14.0625,29.040625 L16.0828125,27.0203125 C16.69375,26.409375 17.68125,26.409375 18.2921875,27.0203125 L20.3125,29.040625 L20.3125,1.5625 L23.4375,1.5625 L23.4375,32.8125 C23.4375,33.44375 23.05625,34.015625 22.4734375,34.25625 C22.2796875,34.3359375 22.0765625,34.375 21.875,34.375 L21.875,34.375 Z" id="Shape"></path>
                            </g>
                            <g transform="translate(37.500000, 25.000000)">
                                <rect id="Rectangle-path" transform="translate(42.968990, 11.718521) rotate(45.000000) translate(-42.968990, -11.718521) " x="28.6058464" y="10.1560362" width="28.726287" height="3.12497003"></rect>
                                <rect id="Rectangle-path" transform="translate(51.565287, 39.060106) rotate(18.433137) translate(-51.565287, -39.060106) " x="50.0019948" y="29.1780045" width="3.12658459" height="19.7642021"></rect>
                                <path d="M56.25,31.25 C52.8046875,31.25 50,28.4453125 50,25 C50,21.5546875 52.8046875,18.75 56.25,18.75 C59.6953125,18.75 62.5,21.5546875 62.5,25 C62.5,28.4453125 59.6953125,31.25 56.25,31.25 L56.25,31.25 Z M56.25,21.875 C54.525,21.875 53.125,23.2765625 53.125,25 C53.125,26.7234375 54.525,28.125 56.25,28.125 C57.975,28.125 59.375,26.7234375 59.375,25 C59.375,23.2765625 57.975,21.875 56.25,21.875 L56.25,21.875 Z" id="Shape"></path>
                                <polygon id="Shape" points="57.8125 54.6875 54.6875 54.6875 54.6875 50 43.75 50 43.75 46.875 57.8125 46.875"></polygon>
                                <polygon id="Shape" points="34.375 54.6875 31.25 54.6875 31.25 46.875 37.5 46.875 37.5 50 34.375 50"></polygon>
                                <path d="M32.8125,9.375 L1.5625,9.375 C0.7,9.375 0,8.6765625 0,7.8125 L0,1.5625 C0,0.6984375 0.7,0 1.5625,0 L32.8125,0 C33.6765625,0 34.375,0.6984375 34.375,1.5625 L34.375,7.8125 C34.375,8.6765625 33.6765625,9.375 32.8125,9.375 L32.8125,9.375 Z M3.125,6.25 L31.25,6.25 L31.25,3.125 L3.125,3.125 L3.125,6.25 L3.125,6.25 Z" id="Shape"></path>
                                <rect id="Rectangle-path" x="39.0625" y="46.875" width="3.125" height="3.125"></rect>
                            </g>
                            <rect id="Rectangle-path" x="6.25" y="85.9375" width="3.125" height="14.0625"></rect>
                            <rect id="Rectangle-path" x="12.5" y="85.9375" width="3.125" height="14.0625"></rect>
                            <rect id="Rectangle-path" x="84.375" y="85.9375" width="3.125" height="14.0625"></rect>
                            <rect id="Rectangle-path" x="90.625" y="85.9375" width="3.125" height="14.0625"></rect>
                            <g transform="translate(43.750000, 56.250000)" id="Shape">
                                <path d="M15.625,25 L0,25 L0,0 L15.625,0 L15.625,25 L15.625,25 Z M3.125,21.875 L12.5,21.875 L12.5,3.125 L3.125,3.125 L3.125,21.875 L3.125,21.875 Z"></path>
                                <path d="M20.3125,18.75 L14.0625,18.75 C13.1984375,18.75 12.5,18.0515625 12.5,17.1875 L12.5,4.6875 C12.5,3.8234375 13.1984375,3.125 14.0625,3.125 L20.3125,3.125 C21.1765625,3.125 21.875,3.8234375 21.875,4.6875 L21.875,17.1875 C21.875,18.0515625 21.1765625,18.75 20.3125,18.75 L20.3125,18.75 Z M15.625,15.625 L18.75,15.625 L18.75,6.25 L15.625,6.25 L15.625,15.625 L15.625,15.625 Z"></path>
                            </g>
                            <rect id="Rectangle-path" x="46.875" y="50" width="3.125" height="3.125"></rect>
                            <rect id="Rectangle-path" x="53.125" y="50" width="3.125" height="3.125"></rect>
                            <rect id="Rectangle-path" x="46.875" y="43.75" width="3.125" height="3.125"></rect>
                            <rect id="Rectangle-path" x="53.125" y="43.75" width="3.125" height="3.125"></rect>
                            <rect id="Rectangle-path" x="46.875" y="37.5" width="3.125" height="3.125"></rect>
                            <rect id="Rectangle-path" x="53.125" y="37.5" width="3.125" height="3.125"></rect>
                            <polygon id="Shape" points="100 87.5 0 87.5 0 78.125 40.625 78.125 40.625 81.25 3.125 81.25 3.125 84.375 96.875 84.375 96.875 81.25 62.5 81.25 62.5 78.125 100 78.125"></polygon>
                        </g>
                        <rect id="Rectangle-path" x="1.5625" y="6.25" width="75" height="3.125"></rect>
                        <rect id="Rectangle-path" x="37.5" y="7.8125" width="3.125" height="14.0625"></rect>
                    </g>
                </g>
                <g id="Layer_1"></g>
            </g>
        </g>
    </g>
</svg>